<svg width="150" height="24" viewBox="0 0 150 24" fill="none" xmlns="http://www.w3.org/2000/svg">
<g clip-path="url(#clip0_1_30)">
<path fill-rule="evenodd" clip-rule="evenodd" d="M26.3541 13.6851C26.3541 18.5383 29.9992 21.7195 34.4802 21.7195C37.1734 21.7195 39.3326 20.6051 40.8649 18.9099V13.1047H33.5282V15.4965H38.1485V17.9114C37.452 18.5615 36.059 19.3044 34.4802 19.3044C31.4156 19.3044 29.1403 16.9358 29.1403 13.6849C29.1403 10.434 31.4155 8.08884 34.4802 8.08884C35.2659 8.08836 36.0404 8.27566 36.7391 8.63514C37.4377 8.99463 38.0404 9.51588 38.4968 10.1555L40.7256 8.90175C39.4719 7.11373 37.4984 5.67413 34.4802 5.67413C29.9992 5.67421 26.3541 8.83219 26.3541 13.6851ZM42.9287 21.4176H45.3665V13.7781C45.8541 12.9886 47.2239 12.292 48.2455 12.292C48.5026 12.2877 48.7595 12.3111 49.0116 12.3616V9.94677C47.5489 9.94677 46.2023 10.7826 45.3665 11.8509V10.2021H42.9287V21.4176ZM55.3485 21.6962C58.9473 21.6962 61.1296 19.0259 61.1296 15.7982C61.1296 12.5938 58.9472 9.92352 55.3485 9.92352C51.7963 9.92352 49.5906 12.5938 49.5906 15.7982C49.5906 19.0259 51.7962 21.6962 55.3485 21.6962ZM55.3485 19.537C53.2822 19.537 52.1213 17.7958 52.1213 15.7985C52.1213 13.8248 53.2822 12.0833 55.3485 12.0833C57.4381 12.0833 58.5989 13.8246 58.5989 15.7985C58.5989 17.7952 57.4381 19.537 55.3485 19.537ZM72.6666 21.4176H75.2206L78.7031 10.2021H76.1726L74.9886 14.2773L73.8045 18.3525L71.1343 10.2021H68.9986L66.3286 18.3525L63.9605 10.2021H61.4295L64.912 21.4176H67.4663L70.0666 13.1976L72.6666 21.4176ZM83.0654 21.6962C84.2031 21.6962 84.9227 21.3943 85.3639 20.9764L84.7832 19.1416C84.5976 19.3507 84.1564 19.5364 83.6921 19.5364C82.9955 19.5364 82.6241 18.9792 82.6241 18.213V12.3384H84.8994V10.2021H82.6241V7.1375H80.1863V10.2025H78.329V12.3388H80.1863V18.8169C80.1863 20.6745 81.1848 21.6962 83.0654 21.6962ZM93.9994 21.4176H96.4371V13.4762C96.4371 11.1777 95.2299 9.92352 92.8153 9.92352C91.0507 9.92352 89.5881 10.8523 88.8452 11.7344V5.92957H86.4074V21.4176H88.8452V13.5923C89.4257 12.8262 90.4937 12.083 91.7242 12.083C93.094 12.083 93.9995 12.617 93.9995 14.3586L93.9994 21.4176ZM98.9658 21.4176H106.79C109.692 21.4176 111.294 19.6293 111.294 17.2379C111.294 15.3339 109.947 13.6851 108.299 13.4298C109.738 13.1279 110.992 11.8278 110.992 9.87712C110.992 7.69436 109.414 5.92957 106.582 5.92957H98.9659L98.9658 21.4176ZM101.682 12.3384V8.3213H106.024C107.417 8.3213 108.207 9.18044 108.207 10.3411C108.207 11.5019 107.417 12.338 106.024 12.338L101.682 12.3384ZM101.682 19.0259V14.7301H106.139C107.695 14.7301 108.508 15.7053 108.508 16.8664C108.508 18.2131 107.626 19.0255 106.139 19.0255L101.682 19.0259ZM118.303 21.6962C121.902 21.6962 124.085 19.0259 124.085 15.7982C124.085 12.5938 121.902 9.92352 118.303 9.92352C114.751 9.92352 112.545 12.5938 112.545 15.7982C112.545 19.0259 114.751 21.6962 118.303 21.6962ZM118.303 19.537C116.237 19.537 115.076 17.7958 115.076 15.7985C115.076 13.8248 116.237 12.0833 118.303 12.0833C120.393 12.0833 121.554 13.8246 121.554 15.7985C121.554 17.7952 120.393 19.537 118.303 19.537ZM130.908 21.6962C134.507 21.6962 136.69 19.0259 136.69 15.7982C136.69 12.5938 134.507 9.92352 130.908 9.92352C127.356 9.92352 125.151 12.5938 125.151 15.7982C125.151 19.0259 127.356 21.6962 130.908 21.6962ZM130.908 19.537C128.842 19.537 127.681 17.7958 127.681 15.7985C127.681 13.8248 128.842 12.0833 130.908 12.0833C132.998 12.0833 134.159 13.8246 134.159 15.7985C134.159 17.7952 132.998 19.537 130.908 19.537ZM145.882 21.4176H148.946L144.187 15.2873L148.854 10.2021H145.836L140.89 15.6125V5.92957H138.452V21.4176H140.89V18.399L142.445 16.797L145.882 21.4176Z" fill="#024CB5"/>
<path fill-rule="evenodd" clip-rule="evenodd" d="M7.80476 8.39047L22.3803 0.189087C22.3803 0.189087 21.0063 1.39788 21.0667 4.01448C21.131 6.80304 22.3803 7.83997 22.3803 7.83997L20.6676 7.05962L7.25984 12.3084C7.25984 12.3084 6.93431 11.3964 6.92899 10.7089C6.91516 9.01289 7.80476 8.39047 7.80476 8.39047Z" fill="#349DCD"/>
<path fill-rule="evenodd" clip-rule="evenodd" d="M4.70442 13.752L20.6292 7.92682C20.6292 7.92682 19.255 9.13561 19.3155 11.7523C19.3799 14.5408 20.6292 15.5777 20.6292 15.5777L18.4044 14.7212L4.11091 17.5349C4.11091 17.5349 3.83371 16.6942 3.82865 16.0704C3.8149 14.3743 4.70442 13.752 4.70442 13.752Z" fill="#024CB5"/>
<path fill-rule="evenodd" clip-rule="evenodd" d="M1.60592 18.476L18.4082 15.4618C18.4082 15.4618 17.034 16.6706 17.0944 19.2872C17.1589 22.0758 18.4082 23.1127 18.4082 23.1127H1.73137C1.73137 23.1127 0.744766 22.5134 0.730138 20.7074C0.716383 19.0113 1.60592 18.476 1.60592 18.476Z" fill="#43269A"/>
</g>
<defs>
<clipPath id="clip0_1_30">
<rect width="150" height="23.8411" fill="white" transform="translate(0 0.0794678)"/>
</clipPath>
</defs>
</svg>
